<?xml version="1.0" standalone="no"?>
<!DOCTYPE svg PUBLIC "-//W3C//DTD SVG 20010904//EN"
 "http://www.w3.org/TR/2001/REC-SVG-20010904/DTD/svg10.dtd">
<svg version="1.0" xmlns="http://www.w3.org/2000/svg"
 width="100.000000pt" height="85.000000pt" viewBox="0 0 100.000000 85.000000"
 preserveAspectRatio="xMidYMid meet">

<g transform="translate(0.000000,85.000000) scale(0.100000,-0.100000)"
fill="#177377" stroke="none">
<path d="M288 663 c-35 -22 -53 -66 -52 -124 2 -51 19 -93 35 -84 5 4 8 2 7
-4 -2 -5 5 -16 15 -23 17 -12 16 -18 -13 -98 -17 -47 -37 -90 -45 -96 -25 -18
-18 -44 10 -44 21 0 29 9 45 46 11 25 23 58 27 72 3 15 14 45 23 67 17 39 19
41 59 37 l41 -4 0 -88 c0 -79 -2 -88 -20 -93 -11 -3 -20 -12 -20 -21 0 -14 16
-16 115 -16 99 0 115 2 115 16 0 9 -9 18 -20 21 -18 5 -20 14 -20 97 l0 92 47
-6 47 -5 24 -65 c13 -36 31 -84 39 -107 13 -37 20 -43 44 -43 22 0 27 4 26 20
-1 11 -7 20 -13 20 -7 0 -22 30 -34 67 -13 38 -26 72 -31 78 -17 18 -9 40 23
66 30 25 33 33 36 96 4 66 3 70 -28 103 l-33 35 -211 3 c-185 2 -214 0 -238
-15z m156 -55 c-1 -16 -2 -55 -2 -88 l-2 -60 -56 0 c-70 0 -91 11 -103 56 -21
75 22 123 108 120 54 -1 56 -2 55 -28z m96 -173 l0 -205 -25 0 -25 0 0 205 0
205 25 0 25 0 0 -205z m197 170 c54 -62 13 -145 -71 -145 -24 0 -51 -3 -60 -6
-14 -5 -16 7 -16 91 l0 98 62 -6 c51 -5 67 -10 85 -32z"/>
</g>
</svg>
