<?xml version="1.0" standalone="no"?>
<!DOCTYPE svg PUBLIC "-//W3C//DTD SVG 20010904//EN"
 "http://www.w3.org/TR/2001/REC-SVG-20010904/DTD/svg10.dtd">
<svg version="1.0" xmlns="http://www.w3.org/2000/svg"
 width="190.000000pt" height="50pt" viewBox="0 0 1400.000000 624.000000" 
 preserveAspectRatio="xMidYMid meet">

<g transform="translate(0.000000,624.000000) scale(0.10000,-0.100000)"
fill="#F4FF66" stroke="none">
<path d="M695 4471 c-54 -14 -95 -41 -123 -83 l-27 -42 0 -1321 0 -1321 28
-42 c15 -23 46 -52 70 -64 l42 -23 1285 0 c1190 0 1287 1 1316 17 40 22 92 81
101 116 5 15 8 612 8 1327 l0 1300 -27 45 c-16 28 -43 55 -70 70 l-43 25
-1265 2 c-696 0 -1278 -2 -1295 -6z m1285 -158 c0 -24 9 -89 20 -143 121 -595
606 -1048 1210 -1131 l95 -13 -107 -17 c-340 -54 -609 -194 -835 -433 -142
-150 -244 -316 -312 -509 -36 -103 -71 -265 -71 -330 0 -25 -5 -49 -10 -52 -6
-4 -10 11 -10 38 0 60 -35 232 -67 326 -122 365 -378 655 -726 826 -146 71
-262 108 -425 134 l-107 18 60 7 c633 81 1121 531 1245 1150 11 54 20 118 20
143 0 27 4 42 10 38 6 -3 10 -27 10 -52z"/>
<path d="M13283 4164 c-85 -31 -153 -123 -161 -220 -20 -233 268 -365 433
-199 127 127 82 353 -82 415 -63 23 -131 25 -190 4z"/>
<path d="M10869 4116 c-101 -41 -163 -99 -208 -196 l-26 -55 -3 -977 c-2 -970
-2 -978 18 -998 18 -18 33 -20 184 -20 141 0 167 2 185 18 20 17 20 25 23 487
l3 470 28 60 c33 70 75 118 132 148 58 32 212 32 270 0 53 -28 89 -68 117
-128 23 -50 23 -53 26 -532 l3 -482 26 -21 c23 -18 40 -20 185 -20 155 0 159
1 183 25 l25 24 0 468 c0 470 -7 594 -37 688 -61 190 -189 314 -375 361 -76
20 -233 22 -308 5 -75 -18 -186 -72 -237 -116 l-43 -37 0 426 0 426 -57 0
c-37 0 -78 -9 -114 -24z"/>
<path d="M12660 4131 c-101 -31 -192 -111 -238 -209 l-27 -57 -3 -980 -2 -980
21 -18 c18 -15 44 -17 185 -17 151 0 166 2 184 20 20 20 20 33 20 1135 l0
1115 -57 -1 c-32 0 -69 -4 -83 -8z"/>
<path d="M16033 4121 c-73 -27 -137 -75 -178 -135 -69 -101 -65 -35 -65 -1112
l0 -973 22 -15 c18 -13 53 -16 179 -16 143 0 159 2 183 21 l26 20 0 452 c0
506 2 525 68 612 66 88 182 124 307 96 77 -17 128 -60 167 -139 l33 -67 3
-482 3 -483 24 -16 c19 -13 53 -15 190 -12 153 3 168 5 181 23 13 17 14 97 11
560 -3 481 -5 547 -21 600 -46 156 -145 280 -270 339 -94 45 -161 59 -276 59
-156 0 -287 -45 -381 -130 l-39 -35 0 426 0 426 -57 0 c-32 -1 -81 -9 -110
-19z"/>
<path d="M4583 4086 c-103 -33 -180 -105 -231 -213 l-27 -58 -3 -947 c-3 -940
-2 -948 18 -968 19 -19 33 -20 193 -20 140 0 177 3 195 16 l22 15 0 378 c0
358 1 380 19 402 19 24 21 24 278 30 291 6 330 13 473 81 154 74 283 228 336
403 14 46 18 93 18 205 0 162 -11 217 -70 330 -83 160 -217 268 -409 331 -67
22 -86 23 -420 26 -275 2 -359 0 -392 -11z m669 -380 c66 -25 140 -94 169
-158 19 -43 23 -70 23 -143 0 -110 -22 -163 -96 -230 -79 -71 -139 -85 -366
-85 -158 0 -188 2 -204 17 -17 15 -18 38 -18 304 0 287 0 288 23 304 33 24
400 17 469 -9z"/>
<path d="M17734 3866 c-17 -13 -20 -31 -24 -148 -5 -118 -8 -140 -31 -184 -37
-71 -88 -104 -185 -116 -44 -6 -85 -12 -91 -14 -10 -2 -13 -43 -13 -156 0
-205 -5 -198 144 -198 80 0 117 -4 124 -13 7 -8 12 -156 14 -422 4 -398 5
-412 27 -473 60 -163 190 -261 379 -284 103 -13 249 1 289 27 22 15 23 20 23
149 0 173 -2 176 -121 186 -97 8 -141 27 -166 73 -16 28 -18 70 -21 378 -3
309 -1 348 13 363 13 13 39 16 139 16 163 0 156 -8 156 183 0 119 -3 148 -16
161 -12 13 -40 16 -138 16 -106 0 -125 2 -139 18 -15 16 -17 46 -17 215 0 253
13 237 -183 237 -108 0 -148 -4 -163 -14z"/>
<path d="M6573 3450 c-127 -23 -274 -91 -369 -172 -131 -111 -211 -242 -260
-425 -26 -95 -26 -321 0 -416 101 -380 395 -607 786 -607 225 0 413 73 563
218 181 175 266 426 237 694 -23 208 -103 374 -244 505 -85 80 -178 135 -296
174 -84 27 -111 31 -230 35 -74 1 -159 -1 -187 -6z m222 -371 c205 -38 325
-201 325 -440 0 -146 -46 -257 -140 -342 -71 -64 -143 -90 -250 -90 -122 0
-185 26 -271 112 -90 90 -111 145 -117 302 -6 175 27 268 129 364 55 51 96 72
179 91 71 16 75 16 145 3z"/>
<path d="M9480 3445 c-282 -61 -508 -267 -588 -540 -36 -122 -48 -242 -33
-356 43 -343 246 -589 571 -691 66 -20 94 -23 240 -23 188 1 245 12 375 75
134 65 229 159 285 283 46 103 37 169 -32 218 -25 18 -49 24 -112 27 -122 6
-152 -5 -225 -88 -84 -95 -162 -134 -277 -138 -139 -6 -245 40 -324 140 -57
72 -82 145 -88 263 -10 214 66 354 234 432 53 25 70 28 166 27 102 0 110 -1
174 -34 52 -27 78 -49 112 -93 61 -80 87 -92 197 -92 104 0 145 17 177 75 26
48 19 106 -23 177 -101 169 -282 293 -494 338 -87 18 -249 18 -335 0z"/>
<path d="M14450 3433 c-51 -8 -157 -46 -210 -74 -168 -89 -294 -252 -352 -456
-32 -113 -32 -314 0 -428 63 -217 188 -372 374 -460 109 -52 186 -69 313 -69
167 0 280 40 383 138 l55 51 -6 -120 c-8 -158 -27 -220 -94 -302 -70 -87 -238
-136 -386 -113 -107 16 -180 60 -244 146 -71 95 -126 124 -235 124 -92 0 -130
-15 -154 -62 -21 -41 -20 -81 5 -153 106 -302 481 -476 886 -410 181 29 294
84 411 200 96 95 152 195 192 343 l26 97 4 738 c3 663 2 741 -13 763 -15 24
-17 24 -185 24 -201 0 -200 1 -200 -96 0 -35 -2 -64 -5 -64 -2 0 -25 22 -50
49 -54 58 -139 105 -226 126 -59 14 -227 18 -289 8z m364 -392 c108 -53 174
-149 196 -283 28 -178 -55 -355 -198 -425 -79 -38 -211 -45 -293 -14 -165 62
-247 200 -237 397 6 111 41 195 109 262 77 76 152 102 276 98 68 -2 92 -8 147
-35z"/>
<path d="M8525 3414 c-101 -20 -184 -64 -244 -130 -28 -30 -55 -53 -61 -49 -5
3 -10 44 -10 91 l0 84 -78 0 c-45 0 -98 -7 -125 -16 -60 -20 -131 -84 -165
-148 l-27 -51 -3 -642 c-3 -635 -2 -643 18 -663 18 -18 32 -20 183 -20 127 0
167 3 184 15 20 14 21 22 25 412 5 374 6 402 27 465 53 165 174 247 370 254
135 4 131 -3 131 210 0 167 -1 173 -22 188 -28 20 -106 19 -203 0z"/>
<path d="M13421 3394 c-97 -34 -174 -106 -220 -203 l-26 -56 -3 -612 c-3 -605
-2 -613 18 -633 18 -18 32 -20 183 -20 131 0 167 3 185 16 l22 15 0 755 0 754
-57 0 c-32 -1 -78 -8 -102 -16z"/>
</g>
</svg>
